<svg aria-hidden="true" style="position: absolute; width: 0; height: 0; overflow: hidden;" version="1.1" xmlns="http://www.w3.org/2000/svg" xmlns:xlink="http://www.w3.org/1999/xlink">
<defs>
<symbol id="icon-express" viewBox="0 0 32 32">
<path d="M32 24.784c-0.214 0.083-0.462 0.132-0.721 0.132-0.78 0-1.457-0.438-1.8-1.081l-0.005-0.011-4.6-6.361-0.667-0.889-5.337 7.259c-0.332 0.635-0.985 1.060-1.738 1.060-0.238 0-0.467-0.043-0.678-0.121l0.014 0.004 6.877-9.227-6.397-8.335c0.215-0.080 0.462-0.126 0.721-0.126 0.763 0 1.432 0.402 1.807 1.005l0.005 0.009 4.768 6.44 4.795-6.413c0.328-0.611 0.962-1.020 1.692-1.020 0.249 0 0.487 0.048 0.705 0.134l-0.013-0.005-2.483 3.295-3.363 4.377c-0.183 0.163-0.297 0.4-0.297 0.663s0.114 0.499 0.296 0.662l0.001 0.001 6.405 8.549zM0.003 15.435l0.56-2.767c1.539-5.471 7.811-7.747 12.125-4.36 2.527 1.985 3.157 4.796 3.033 7.964h-14.233c-0.231 5.657 3.852 9.073 9.072 7.328 1.711-0.629 2.998-2.045 3.435-3.797l0.008-0.037c0.276-0.888 0.731-1.040 1.565-0.784-0.297 2.251-1.593 4.148-3.42 5.258l-0.032 0.018c-1.159 0.646-2.541 1.026-4.013 1.026-2.219 0-4.235-0.864-5.732-2.274l0.004 0.004c-1.226-1.375-2.028-3.153-2.185-5.113l-0.002-0.031c0-0.313-0.107-0.607-0.179-0.888-0.006-0.441-0.009-0.962-0.009-1.484 0-0.022 0-0.043 0-0.065v0.003zM1.505 15.053h12.872c-0.080-4.101-2.668-7.011-6.12-7.037-3.843-0.053-6.592 2.792-6.761 7.019z"></path>
</symbol>
<symbol id="icon-formik" viewBox="0 0 32 32">
<path d="M27.393 13.726l-3.671-2.11 0.001-4.401 3.671 2.11zM27.392 18.512l-3.67-2.109 0.001-4.204 3.67 2.109zM27.427 23.355l-3.715-2.135 0.002-4.204 3.715 2.135zM17.891 14.679l5.33-3.064 0-4.203-5.33 3.064zM14.591 21.323l8.61-4.949 0-4.203-8.61 4.949zM8.801 29.513l14.43-8.294 0-4.203-14.43 8.294zM12.786 32l-3.693-2.124 14.378-8.268 3.693 2.124zM4.607 18.37l3.671 2.11-0.001 4.481-3.671-2.11zM4.608 13.584l3.67 2.109-0.001 4.204-3.67-2.109zM4.573 8.769l3.715 2.135-0.001 4.204-3.715-2.135zM14.109 17.416l-5.33 3.064-0.001 4.203 5.33-3.064zM17.409 10.772l-8.61 4.949-0.001 4.203 8.61-4.949zM23.221 2.57l-14.452 8.307-0.001 4.203 14.452-8.307zM19.379 0l3.693 2.124-14.543 8.363-3.693-2.124z"></path>
</symbol>
<symbol id="icon-mongodb" viewBox="0 0 32 32">
<path d="M22.924 12.74c-1.685-7.44-5.669-9.885-6.097-10.82-0.373-0.525-0.707-1.272-0.98-1.92-0.048 0.66-0.073 0.913-0.697 1.579-0.964 0.755-5.917 4.909-6.32 13.36-0.376 7.883 5.693 12.58 6.517 13.179l0.093 0.067c0.122 0.786 0.278 2.095 0.408 3.411l0.032 0.405h0.641c0.152-1.376 0.379-2.741 0.68-4.093 0.556-0.395 0.805-0.617 1.133-0.924 2.989-2.771 4.853-6.718 4.853-11.101 0-0.065-0-0.13-0.001-0.194l0 0.010c0.013-1.085-0.137-2.216-0.263-2.957zM15.809 23.667s0-11.055 0.367-11.053c0.284 0 0.653 14.26 0.653 14.26-0.508-0.060-1.020-2.347-1.020-3.207z"></path>
</symbol>
<symbol id="icon-mongoosedotws" viewBox="0 0 32 32">
<path d="M16 0c-0.005 0-0.010-0-0.016-0-1.794 0-3.418 0.729-4.592 1.907l-9.486 9.487c-1.176 1.177-1.903 2.802-1.903 4.598 0 1.735 0.679 3.311 1.786 4.477l-0.003-0.003 8.093-8.092c-0.049-0.162-0.076-0.347-0.076-0.539 0-0.536 0.218-1.022 0.57-1.373l0-0c0.355-0.354 0.845-0.574 1.386-0.574s1.031 0.219 1.386 0.574l-0-0c0.773 0.773 0.773 2.016 0.008 2.78-0.493 0.493-1.187 0.661-1.824 0.517l-8.132 8.133 8.196 8.195c1.18 1.182 2.81 1.913 4.612 1.913 1.797 0 3.424-0.727 4.603-1.904l8.324-8.324-3.935-3.935c-0.162 0.049-0.347 0.077-0.54 0.077-0.536 0-1.022-0.218-1.372-0.57l-0-0c-0.355-0.355-0.574-0.845-0.574-1.387s0.219-1.032 0.574-1.387v0c0.356-0.358 0.849-0.58 1.394-0.58 0.541 0 1.031 0.219 1.386 0.572l-0-0c0.493 0.493 0.661 1.187 0.517 1.824l3.951 3.951c1.033-1.146 1.664-2.67 1.664-4.342 0-1.798-0.731-3.425-1.911-4.602l-9.478-9.478c-1.178-1.183-2.808-1.915-4.609-1.916h-0zM20.213 9.867c0.163-0.003 0.324 0.016 0.481 0.053 0.343 0.072 0.677 0.247 0.948 0.517 0.247 0.247 0.423 0.549 0.493 0.876 0.051 0.164 0.081 0.353 0.081 0.548 0 0.53-0.216 1.010-0.566 1.355l-0 0c-0.354 0.351-0.842 0.568-1.38 0.568-0.157 0-0.311-0.019-0.457-0.054l0.013 0.003-1.888 1.888c0.034 0.136 0.053 0.292 0.053 0.452 0 1.073-0.87 1.943-1.943 1.943-0.16 0-0.316-0.019-0.465-0.056l0.013 0.003c-0.373-0.082-0.695-0.264-0.947-0.517l-0-0c-0.238-0.232-0.412-0.53-0.492-0.864l-0.002-0.012c-0.051-0.164-0.081-0.353-0.081-0.549 0-0.53 0.216-1.009 0.565-1.354l0-0c0.354-0.351 0.842-0.568 1.38-0.568 0.157 0 0.311 0.019 0.457 0.054l-0.013-0.003 1.888-1.888c-0.033-0.134-0.052-0.288-0.052-0.447 0-1.063 0.853-1.928 1.912-1.946l0.002-0zM20.257 10.844c-0.54 0.002-0.978 0.441-0.978 0.981 0 0.269 0.109 0.513 0.284 0.691l-0-0c0.178 0.182 0.427 0.294 0.701 0.294 0.271 0 0.516-0.109 0.693-0.286l-0 0c0.177-0.178 0.286-0.423 0.286-0.693 0-0.275-0.113-0.523-0.294-0.701l-0-0c-0.177-0.176-0.42-0.285-0.69-0.285-0.001 0-0.003 0-0.004 0h0zM11.759 10.868c-0.541 0-0.979 0.439-0.979 0.98 0 0.27 0.109 0.515 0.286 0.692l-0-0c0.178 0.182 0.427 0.294 0.701 0.294 0.271 0 0.516-0.109 0.693-0.286l-0 0c0.177-0.178 0.286-0.422 0.286-0.693 0-0.274-0.112-0.522-0.294-0.7l-0-0c-0.177-0.177-0.421-0.287-0.691-0.287-0.001 0-0.001 0-0.002 0h0zM24.479 14.971c-0.274 0.001-0.522 0.113-0.701 0.293l-0 0c-0.161 0.174-0.26 0.408-0.26 0.665 0 0.542 0.439 0.981 0.981 0.981 0.257 0 0.491-0.099 0.666-0.26l-0.001 0.001c0.182-0.178 0.294-0.427 0.294-0.701 0-0.271-0.109-0.516-0.286-0.693l0 0c-0.176-0.176-0.42-0.285-0.689-0.285-0.002 0-0.003 0-0.005 0h0zM16.040 15.075c-0.005-0-0.011-0-0.016-0-0.197 0-0.381 0.059-0.534 0.161l0.004-0.002c-0.060 0.041-0.112 0.083-0.161 0.129l0.001-0.001c-0.047 0.047-0.087 0.103-0.127 0.159-0.099 0.151-0.158 0.335-0.158 0.534 0 0.274 0.112 0.522 0.294 0.701l0 0c0.177 0.177 0.422 0.287 0.693 0.287 0.541 0 0.98-0.439 0.98-0.98 0-0.271-0.11-0.516-0.287-0.693v0c-0.176-0.178-0.419-0.289-0.687-0.293h-0.001z"></path>
</symbol>
<symbol id="icon-nextdotjs" viewBox="0 0 32 32">
<path d="M24.887 29.304c-2.543 1.703-5.6 2.696-8.887 2.696-8.831 0-16-7.169-16-16s7.169-16 16-16 16 7.169 16 16c0 4.777-2.099 9.068-5.423 12.001l-14.285-18.401h-2.692v12.795h2.153v-10.060l13.133 16.969zM20.444 17.927l2.133 2.748v-11.075h-2.133v8.327z"></path>
</symbol>
<symbol id="icon-nodedotjs" viewBox="0 0 32 32">
<path d="M15.997 32c-0.428 0-0.855-0.112-1.229-0.329l-3.915-2.316c-0.584-0.327-0.299-0.443-0.107-0.511 0.78-0.271 0.937-0.333 1.771-0.805 0.087-0.049 0.201-0.031 0.291 0.023l3.008 1.785c0.109 0.060 0.263 0.060 0.363 0l11.727-6.768c0.109-0.063 0.179-0.188 0.179-0.317v-13.533c0-0.132-0.071-0.256-0.183-0.323l-11.721-6.763c-0.108-0.063-0.252-0.063-0.361 0l-11.719 6.764c-0.113 0.065-0.185 0.193-0.185 0.321v13.533c0 0.129 0.072 0.252 0.185 0.313l3.212 1.856c1.743 0.872 2.811-0.155 2.811-1.187v-13.361c0-0.189 0.152-0.337 0.341-0.337h1.487c0.185 0 0.34 0.149 0.34 0.337v13.361c0 2.327-1.267 3.66-3.472 3.66-0.677 0-1.212 0-2.701-0.735l-3.077-1.769c-0.76-0.439-1.229-1.26-1.229-2.139v-13.533c0-0.879 0.471-1.7 1.229-2.137l11.727-6.776c0.743-0.42 1.728-0.42 2.464 0l11.725 6.776c0.76 0.439 1.232 1.259 1.232 2.137v13.533c0 0.879-0.472 1.697-1.232 2.139l-11.725 6.771c-0.373 0.217-0.799 0.329-1.233 0.329zM25.465 18.657c0-2.533-1.712-3.208-5.316-3.684-3.641-0.481-4.012-0.731-4.012-1.583 0-0.704 0.313-1.644 3.011-1.644 2.409 0 3.297 0.519 3.663 2.143 0.032 0.153 0.172 0.265 0.329 0.265h1.521c0.095 0 0.184-0.041 0.248-0.108 0.064-0.072 0.099-0.164 0.089-0.261-0.236-2.797-2.095-4.101-5.851-4.101-3.344 0-5.339 1.411-5.339 3.777 0 2.567 1.984 3.276 5.193 3.593 3.84 0.376 4.137 0.937 4.137 1.692 0 1.311-1.052 1.869-3.523 1.869-3.103 0-3.785-0.779-4.015-2.323-0.027-0.165-0.168-0.287-0.337-0.287h-1.516c-0.188 0-0.339 0.149-0.339 0.337 0 1.976 1.075 4.331 6.207 4.331 3.717 0.001 5.848-1.461 5.848-4.017z"></path>
</symbol>
<symbol id="icon-postgresql" viewBox="0 0 32 32">
<path d="M31.413 19.63c-0.020-0.061-0.046-0.113-0.077-0.162l0.002 0.003c-0.185-0.351-0.636-0.456-1.343-0.309-2.204 0.455-3.058 0.175-3.367-0.025 1.789-2.731 3.26-6.029 4.055-9.106 0.362-1.401 1.064-4.698 0.163-6.309-0.063-0.12-0.13-0.222-0.205-0.318l0.003 0.005c-1.719-2.197-4.242-3.375-7.297-3.408-1.993-0.021-3.694 0.461-4.155 0.639-0.153-0.032-0.387-0.070-0.623-0.102l-0.065-0.007c-0.52-0.099-1.124-0.161-1.74-0.17l-0.009-0c-1.576-0.025-2.938 0.352-4.066 1.121-1.143-0.428-6.385-2.193-9.629 0.105-1.812 1.284-2.648 3.578-2.486 6.819 0.055 1.091 0.676 4.445 1.656 7.658 0.613 2.009 1.252 3.603 1.911 4.776 0.737 1.326 1.501 2.124 2.286 2.386 0.597 0.199 1.51 0.192 2.477-0.971 1.068-1.285 2.12-2.434 2.593-2.943 0.58 0.314 1.209 0.483 1.853 0.503 0 0.002 0 0.004 0.001 0.006l-0-0c-0.092 0.109-0.2 0.241-0.306 0.375l-0.024 0.032c-0.452 0.574-0.546 0.693-2 0.992-0.414 0.085-1.513 0.312-1.529 1.082-0.003 0.163 0.044 0.308 0.123 0.436 0.303 0.564 1.229 0.813 1.353 0.844 1.779 0.445 3.339 0.123 4.495-0.905-0.023 2.975 0.103 5.89 0.461 6.783 0.295 0.737 1.016 2.539 3.292 2.539 0.334 0 0.702-0.039 1.106-0.125 2.376-0.509 3.408-1.559 3.807-3.875 0.2-1.161 0.535-3.834 0.718-5.468 0.023-0.094 0.048-0.161 0.076-0.182 0.001-0.001 0.093-0.063 0.57 0.041 0.016 0.004 0.037 0.007 0.057 0.009l0.002 0 0.339 0.030 0.020 0.001c1.129 0.051 2.549-0.19 3.375-0.574 0.858-0.398 2.408-1.376 2.127-2.226zM3.161 15.835c-0.991-3.248-1.571-6.513-1.616-7.429-0.145-2.895 0.556-4.911 2.083-5.99 2.449-1.731 6.453-0.721 8.144-0.173-0.004 0.004-0.009 0.008-0.013 0.013-2.698 2.725-2.634 7.381-2.628 7.666-0 0.11 0.009 0.265 0.022 0.479 0.046 0.783 0.133 2.241-0.098 3.891-0.215 1.534 0.258 3.035 1.297 4.119 0.107 0.112 0.22 0.217 0.336 0.317-0.462 0.495-1.467 1.59-2.537 2.877-0.757 0.91-1.28 0.736-1.451 0.678-0.523-0.174-1.084-0.783-1.651-1.763-0.639-1.119-1.285-2.709-1.887-4.683zM11.171 22.618c-0.228-0.057-0.436-0.151-0.576-0.236 0.119-0.053 0.317-0.12 0.644-0.188 1.711-0.352 1.975-0.601 2.552-1.334 0.132-0.168 0.282-0.358 0.49-0.59 0.043-0.048 0.077-0.106 0.097-0.17l0.001-0.003c0.228-0.202 0.363-0.147 0.583-0.056 0.208 0.086 0.41 0.347 0.493 0.634 0.039 0.135 0.083 0.393-0.060 0.593-1.206 1.688-2.962 1.666-4.223 1.35zM13.963 17.301l-0.070 0.188c-0.177 0.475-0.342 0.917-0.445 1.337-0.89-0.003-1.756-0.383-2.414-1.070-0.837-0.873-1.217-2.089-1.043-3.334 0.244-1.744 0.154-3.262 0.105-4.078-0.007-0.114-0.013-0.214-0.016-0.293 0.394-0.349 2.221-1.328 3.524-1.030 0.595 0.136 0.957 0.541 1.107 1.237 0.779 3.605 0.103 5.108-0.44 6.315-0.112 0.249-0.218 0.484-0.308 0.727zM23.781 23.397c-0.023 0.236-0.048 0.501-0.082 0.795l-0.195 0.584c-0.015 0.043-0.024 0.092-0.024 0.143v0c-0.008 0.633-0.072 0.865-0.153 1.159-0.085 0.306-0.18 0.652-0.239 1.41-0.147 1.886-1.171 2.969-3.223 3.409-2.021 0.433-2.379-0.662-2.695-1.629-0.051-0.163-0.086-0.264-0.122-0.363l0.020 0.061c-0.287-0.781-0.255-1.883-0.21-3.407 0.022-0.748-0.033-2.535-0.44-3.528 0.006-0.391 0.014-0.788 0.025-1.189 0-0.004 0-0.008 0-0.013 0-0.049-0.008-0.096-0.021-0.141l0.001 0.003c-0.015-0.107-0.035-0.2-0.062-0.291l0.004 0.014c-0.163-0.571-0.562-1.049-1.040-1.247-0.19-0.079-0.538-0.223-0.957-0.116 0.089-0.368 0.244-0.783 0.412-1.233l0.071-0.189c0.079-0.213 0.179-0.434 0.284-0.668 0.569-1.263 1.347-2.994 0.502-6.903-0.317-1.464-1.374-2.179-2.977-2.013-0.961 0.099-1.84 0.487-2.278 0.709-0.129 0.064-0.214 0.111-0.299 0.158l0.038-0.020c0.122-1.475 0.585-4.232 2.314-5.976 0.126-0.127 0.258-0.247 0.395-0.361l0.009-0.007c0.074-0.015 0.139-0.045 0.194-0.087l-0.001 0.001c1.003-0.761 2.259-1.134 3.736-1.11 0.545 0.009 1.069 0.045 1.566 0.108 2.585 0.473 4.325 1.929 5.381 3.177 1.086 1.283 1.674 2.575 1.908 3.272-1.764-0.179-2.965 0.169-3.573 1.039-1.323 1.892 0.724 5.564 1.708 7.329 0.18 0.323 0.336 0.603 0.385 0.722 0.32 0.777 0.735 1.295 1.038 1.674 0.093 0.116 0.183 0.229 0.251 0.327-0.534 0.154-1.494 0.51-1.407 2.289-0.016 0.208-0.056 0.596-0.111 1.086-0.061 0.277-0.094 0.614-0.133 1.022zM24.969 21.236c-0.054-1.109 0.359-1.225 0.796-1.347 0.087-0.023 0.148-0.042 0.207-0.062l-0.027 0.008c0.053 0.047 0.112 0.093 0.173 0.134l0.006 0.004c0.76 0.502 2.11 0.562 4.009 0.179-0.269 0.236-0.692 0.533-1.271 0.801-0.546 0.254-1.461 0.444-2.33 0.485-0.96 0.045-1.448-0.108-1.563-0.201zM25.728 8.874c-0.008 0.468-0.072 0.892-0.141 1.336-0.073 0.477-0.149 0.97-0.169 1.568-0.019 0.582 0.054 1.188 0.124 1.773 0.142 1.183 0.288 2.4-0.277 3.602-0.081-0.14-0.165-0.309-0.239-0.483l-0.012-0.031c-0.070-0.17-0.223-0.443-0.433-0.822-0.821-1.472-2.743-4.919-1.759-6.326 0.506-0.724 1.788-0.755 2.904-0.617zM26.032 18.226c-0.063-0.081-0.101-0.128-0.138-0.174l0.024 0.031-0.047-0.059c0.968-1.599 0.779-3.182 0.61-4.585-0.069-0.576-0.135-1.119-0.118-1.63 0.017-0.541 0.089-1.006 0.158-1.455 0.085-0.553 0.172-1.126 0.148-1.801 0.018-0.071 0.025-0.154 0.016-0.254-0.061-0.647-0.8-2.584-2.306-4.337-0.81-0.943-1.986-1.996-3.585-2.719 0.7-0.142 1.644-0.271 2.699-0.248 2.735 0.061 4.899 1.085 6.432 3.043 0.030 0.039 0.059 0.082 0.086 0.128l0.003 0.006c0.964 1.807-0.368 8.367-3.982 14.054zM14.277 10.071c-0.033 0.239-0.412 0.563-0.828 0.563-0 0-0 0-0 0-0.038 0-0.075-0.003-0.112-0.008l0.004 0.001c-0.25-0.035-0.502-0.192-0.675-0.421-0.061-0.081-0.16-0.237-0.141-0.379 0.007-0.053 0.035-0.131 0.123-0.198 0.158-0.119 0.469-0.163 0.813-0.116 0.422 0.059 0.857 0.258 0.815 0.558zM24.851 9.523c0.015 0.106-0.065 0.268-0.204 0.414-0.091 0.096-0.283 0.261-0.544 0.298-0.030 0.004-0.065 0.007-0.1 0.007v0c-0.391 0-0.722-0.313-0.748-0.496-0.032-0.235 0.352-0.414 0.748-0.469s0.815 0.012 0.847 0.247z"></path>
</symbol>
<symbol id="icon-react" viewBox="0 0 32 32">
<path d="M18.973 16.005c0 1.646-1.334 2.981-2.98 2.981h-0c-1.647 0-2.981-1.335-2.981-2.981v0c0-1.646 1.334-2.981 2.98-2.981h0c1.647 0 2.981 1.335 2.981 2.981v0zM22.504 1.752c-1.795 0-4.143 1.28-6.517 3.496-2.373-2.204-4.723-3.469-6.516-3.469-0.547 0-1.044 0.124-1.475 0.371-1.833 1.057-2.244 4.352-1.297 8.487-4.059 1.253-6.699 3.257-6.699 5.369 0 2.12 2.653 4.129 6.724 5.373-0.939 4.151-0.52 7.451 1.317 8.507 0.427 0.249 0.92 0.367 1.469 0.367 1.793 0 4.143-1.28 6.517-3.499 2.373 2.205 4.723 3.471 6.516 3.471 0.547 0 1.044-0.12 1.475-0.367 1.832-1.056 2.244-4.351 1.297-8.487 4.044-1.243 6.684-3.251 6.684-5.365 0-2.12-2.653-4.129-6.724-5.376 0.939-4.147 0.52-7.449-1.317-8.507-0.424-0.245-0.917-0.369-1.456-0.371zM22.497 3.205v0.008c0.3 0 0.541 0.059 0.744 0.169 0.888 0.509 1.273 2.447 0.973 4.939-0.072 0.613-0.189 1.26-0.333 1.92-1.28-0.315-2.675-0.556-4.143-0.712-0.88-1.207-1.793-2.303-2.713-3.263 2.123-1.973 4.116-3.056 5.473-3.060zM9.471 3.232c1.349 0 3.352 1.077 5.48 3.040-0.915 0.96-1.827 2.049-2.693 3.256-1.476 0.156-2.872 0.397-4.151 0.717-0.149-0.653-0.26-1.285-0.339-1.893-0.307-2.491 0.072-4.427 0.952-4.943 0.253-0.12 0.533-0.169 0.751-0.176zM15.98 7.299c0.607 0.624 1.213 1.323 1.813 2.085-0.587-0.027-1.187-0.045-1.793-0.045-0.613 0-1.22 0.013-1.813 0.045 0.587-0.763 1.193-1.461 1.793-2.087zM16 10.8c0.987 0 1.969 0.045 2.936 0.124 0.541 0.776 1.069 1.604 1.577 2.48 0.496 0.853 0.947 1.72 1.357 2.595-0.411 0.873-0.861 1.747-1.351 2.6-0.507 0.88-1.031 1.717-1.573 2.493-0.971 0.084-1.955 0.131-2.947 0.131-0.987 0-1.969-0.047-2.936-0.124-0.541-0.776-1.069-1.605-1.577-2.48-0.496-0.853-0.947-1.72-1.357-2.595 0.404-0.876 0.861-1.751 1.351-2.605 0.507-0.88 1.031-1.715 1.573-2.491 0.971-0.085 1.955-0.131 2.947-0.131zM11.153 11.139c-0.32 0.503-0.64 1.017-0.939 1.547-0.3 0.52-0.58 1.043-0.847 1.565-0.353-0.875-0.653-1.747-0.901-2.596 0.853-0.2 1.753-0.377 2.687-0.515zM20.833 11.139c0.927 0.137 1.82 0.307 2.675 0.516-0.24 0.843-0.54 1.709-0.88 2.577-0.267-0.52-0.547-1.044-0.853-1.565-0.3-0.523-0.62-1.032-0.94-1.528zM24.917 12.039c0.645 0.2 1.259 0.423 1.833 0.664 2.309 0.987 3.803 2.277 3.803 3.301-0.007 1.024-1.5 2.32-3.809 3.3-0.56 0.24-1.173 0.456-1.807 0.657-0.373-1.277-0.861-2.608-1.467-3.973 0.6-1.356 1.080-2.68 1.447-3.952zM7.057 12.044c0.371 1.28 0.86 2.609 1.467 3.973-0.6 1.356-1.083 2.68-1.448 3.952-0.645-0.2-1.259-0.424-1.827-0.667-2.309-0.983-3.803-2.275-3.803-3.299s1.493-2.323 3.803-3.301c0.56-0.24 1.173-0.456 1.808-0.659zM22.628 17.751c0.353 0.876 0.653 1.749 0.901 2.597-0.853 0.209-1.755 0.387-2.688 0.52 0.32-0.5 0.64-1.016 0.94-1.544 0.3-0.52 0.58-1.051 0.848-1.573zM9.368 17.777c0.267 0.523 0.547 1.044 0.853 1.567 0.307 0.52 0.62 1.029 0.94 1.524-0.927-0.136-1.82-0.307-2.675-0.515 0.24-0.84 0.541-1.709 0.88-2.577zM23.893 21.76c0.149 0.657 0.267 1.291 0.339 1.897 0.307 2.491-0.072 4.427-0.952 4.944-0.196 0.12-0.451 0.171-0.751 0.171-1.349 0-3.352-1.076-5.48-3.040 0.915-0.96 1.827-2.048 2.693-3.253 1.476-0.157 2.872-0.4 4.151-0.72zM8.12 21.773c1.28 0.312 2.675 0.553 4.143 0.709 0.88 1.207 1.793 2.303 2.713 3.261-2.127 1.977-4.123 3.060-5.48 3.060-0.293-0.007-0.541-0.067-0.737-0.176-0.888-0.507-1.273-2.445-0.973-4.937 0.072-0.613 0.189-1.259 0.333-1.917zM14.2 22.627c0.587 0.027 1.187 0.045 1.793 0.045 0.613 0 1.22-0.013 1.813-0.045-0.587 0.763-1.193 1.46-1.793 2.087-0.607-0.627-1.213-1.324-1.813-2.087z"></path>
</symbol>
<symbol id="icon-typeorm" viewBox="0 0 32 32">
<path d="M30.124 9.151c0 1.2-0.011 2.323 0.005 3.444 0.008 0.473 0.093 0.944 0.28 1.384 0.177 0.408 0.467 0.725 0.869 0.923 0.204 0.1 0.419 0.175 0.627 0.272 0.048 0.028 0.082 0.075 0.088 0.131l0 0.001q0.011 0.773 0 1.547c0 0.052-0.069 0.129-0.124 0.147-0.759 0.255-1.341 0.855-1.566 1.61l-0.004 0.017c-0.167 0.516-0.183 1.047-0.183 1.583q0.003 2.987-0.008 5.973c0 0.621-0.093 1.235-0.3 1.817-0.116 0.321-0.301 0.617-0.463 0.92-0.021 0.041-0.067 0.069-0.107 0.097-0.247 0.183-0.487 0.383-0.747 0.543-0.225 0.137-0.472 0.236-0.713 0.34-0.152 0.064-0.315 0.109-0.469 0.161q-0.033 0.013-0.067 0.019c-0.307 0.037-0.613 0.083-0.919 0.111q-0.557 0.044-1.112 0.069c-0.081 0.004-0.164-0.027-0.244-0.035-0.139-0.013-0.173-0.093-0.171-0.224 0.003-0.202 0.005-0.44 0.005-0.678s-0.002-0.476-0.006-0.714l0 0.036c0-0.139 0.036-0.2 0.185-0.188 0.156 0.009 0.32 0.016 0.472-0.005q0.443-0.063 0.873-0.167c0.229-0.061 0.425-0.13 0.612-0.214l-0.025 0.010c0.261-0.112 0.47-0.301 0.605-0.539l0.003-0.006c0.167-0.277 0.247-0.583 0.315-0.901 0.076-0.351 0.048-0.693 0.053-1.040 0.009-1.98 0-3.96 0.011-5.941q0.004-0.627 0.104-1.247c0.131-0.915 0.678-1.679 1.439-2.106l0.014-0.007 0.333-0.191c0.081-0.049 0.072-0.143-0.021-0.192-0.424-0.226-0.784-0.514-1.083-0.857l-0.004-0.005c-0.225-0.267-0.402-0.583-0.514-0.928l-0.006-0.020c-0.24-0.735-0.273-1.493-0.269-2.259 0.003-1.928-0.013-3.856 0-5.783 0-0.005 0-0.011 0-0.016 0-0.309-0.035-0.61-0.101-0.899l0.005 0.027c-0.107-0.493-0.32-0.949-0.787-1.212-0.178-0.093-0.385-0.174-0.601-0.231l-0.021-0.005c-0.19-0.062-0.417-0.113-0.65-0.144l-0.020-0.002c-0.182-0.022-0.392-0.035-0.605-0.035-0.040 0-0.080 0-0.12 0.001l0.006-0c-0.151 0.001-0.204-0.040-0.2-0.196 0.008-0.485 0.004-0.971 0.001-1.456 0-0.119 0.040-0.163 0.156-0.159 0.261 0.007 0.52-0.009 0.779 0.005 0.363 0.021 0.727 0.047 1.087 0.097 0.823 0.113 1.551 0.454 2.136 0.957l-0.006-0.005c0.336 0.287 0.544 0.639 0.712 1.029 0.2 0.461 0.301 0.947 0.367 1.443 0.173 1.32 0.040 2.648 0.096 3.891zM1.895 8.953c0-0.775-0.008-1.551 0.003-2.327 0.008-0.509 0.012-1.027 0.065-1.532 0.036-0.351 0.147-0.693 0.24-1.037 0.094-0.372 0.263-0.696 0.491-0.968l-0.003 0.004c0.196-0.229 0.419-0.426 0.666-0.592l0.011-0.007c0.259-0.169 0.555-0.277 0.839-0.407 0.227-0.101 0.464-0.144 0.707-0.188 0.577-0.107 1.241-0.168 1.919-0.168 0.063 0 0.125 0.001 0.187 0.002l-0.009-0c0.12 0 0.163 0.036 0.16 0.156q-0.005 0.744 0 1.491c0 0.121-0.037 0.168-0.164 0.163-0.058-0.006-0.126-0.009-0.194-0.009-0.082 0-0.164 0.005-0.244 0.014l0.010-0.001c-0.379 0.051-0.697 0.11-1.011 0.183l0.072-0.014c-0.2 0.047-0.388 0.125-0.579 0.197-0.262 0.11-0.474 0.298-0.61 0.535l-0.003 0.006c-0.164 0.277-0.244 0.587-0.317 0.907-0.089 0.4 0.011 0.784 0.003 1.176-0.027 1.772-0.008 3.544-0.013 5.32 0 0.034 0 0.074 0 0.114 0 0.476-0.025 0.945-0.073 1.408l0.005-0.058c-0.107 0.965-0.513 1.771-1.365 2.303q-0.231 0.137-0.46 0.279c-0.031 0.019-0.068 0.065-0.063 0.091 0.011 0.047 0.039 0.086 0.077 0.112l0.001 0c0.44 0.237 0.812 0.539 1.12 0.899l0.004 0.005c0.253 0.307 0.415 0.659 0.533 1.040 0.2 0.661 0.212 1.341 0.219 2.021 0.011 1.731 0.003 3.463 0.004 5.195 0 0.192 0.020 0.384 0.017 0.575 0 0.096-0.033 0.191-0.036 0.287q-0.005 0.168 0.007 0.337c0.004 0.069 0.027 0.139 0.039 0.208 0.057 0.401 0.183 0.777 0.448 1.089 0.175 0.204 0.404 0.336 0.659 0.428 0.268 0.096 0.547 0.133 0.821 0.199 0.328 0.077 0.647 0.059 0.973 0.072 0.087 0.004 0.12 0.040 0.12 0.124 0 0.523 0.003 1.045-0.007 1.568 0 0.039-0.071 0.108-0.109 0.108-0.336 0.007-0.671 0.013-1.005-0.003-0.328-0.011-0.64-0.044-0.944-0.098l0.040 0.006c-0.312-0.059-0.613-0.163-0.92-0.248-0.503-0.146-0.932-0.41-1.273-0.762l-0.001-0.001c-0.202-0.204-0.371-0.442-0.495-0.705l-0.007-0.015c-0.158-0.331-0.292-0.719-0.382-1.123l-0.007-0.037c-0.083-0.384-0.133-0.828-0.137-1.282l-0-0.003c-0.020-1.897-0.017-3.795-0.031-5.691-0.003-0.429-0.005-0.86-0.052-1.285-0.053-0.48-0.16-0.949-0.456-1.351-0.213-0.284-0.494-0.506-0.819-0.644l-0.013-0.005c-0.147-0.064-0.301-0.111-0.445-0.183-0.049-0.027-0.103-0.1-0.103-0.153q-0.008-0.747-0.004-1.491c0-0.133 0.117-0.157 0.207-0.188 0.496-0.173 0.901-0.464 1.188-0.912 0.275-0.408 0.445-0.907 0.459-1.446l0-0.004c0.029-1.227 0.040-2.455 0.059-3.68h-0.021zM9.941 10.26v-4.147c0-0.393 0.233-0.629 0.629-0.629h6.869c0.395 0 0.631 0.236 0.631 0.629v8.267c0 0.427-0.227 0.653-0.651 0.653-2.277 0-4.549-0.003-6.827 0.005-0.383 0-0.659-0.263-0.653-0.657 0.008-1.373 0.003-2.747 0.003-4.121zM10.269 10.263v4.121c0 0.277 0.047 0.323 0.32 0.323h6.825c0.285 0 0.328-0.040 0.328-0.325v-8.244c0-0.284-0.044-0.327-0.325-0.327h-6.824c-0.28 0-0.323 0.044-0.323 0.329zM9.943 21.449v-4.133c0-0.397 0.231-0.632 0.628-0.632h6.869c0.4 0 0.631 0.236 0.631 0.64v8.245q0 0.665-0.661 0.665h-6.813c-0.427 0-0.651-0.227-0.651-0.652zM10.269 21.457v4.145c0 0.252 0.052 0.304 0.303 0.304h6.856c0.269 0 0.315-0.047 0.315-0.319v-8.263c0-0.263-0.051-0.312-0.311-0.312h-6.844c-0.273 0-0.32 0.047-0.32 0.324zM21.924 16.047q-0.003 2.787 0.003 5.579c0 0.147-0.040 0.191-0.187 0.189-0.347-0.003-0.757-0.005-1.168-0.005s-0.821 0.002-1.23 0.006l0.063-0c-0.139 0-0.16-0.053-0.16-0.173 0-0.124 0.040-0.16 0.16-0.16 0.667 0.005 1.333 0 1.999 0.005 0.144 0 0.197-0.041 0.197-0.193q-0.004-5.245 0-10.491c0-0.149-0.048-0.196-0.196-0.195-0.667 0.007-1.332 0-1.997 0.005-0.133 0-0.164-0.045-0.164-0.171 0-0.12 0.032-0.163 0.159-0.161q1.184 0.007 2.368 0c0.128 0 0.156 0.044 0.156 0.163q-0.003 2.801 0 5.603zM14.059 7.599q-1.365 0-2.729-0.003c-0.053 0-0.145-0.013-0.151-0.037-0.016-0.081-0.005-0.169 0-0.255 0-0.013 0.041-0.027 0.069-0.031q0.053-0.005 0.109-0.003h5.395c0.177 0 0.259 0.117 0.183 0.277-0.013 0.032-0.088 0.048-0.133 0.048q-1.128 0.003-2.255 0.001zM14.423 9.483c-0.78 0-1.56-0.005-2.344 0.004-0.173 0-0.157-0.091-0.164-0.204-0.009-0.136 0.073-0.129 0.164-0.129h4.701c0.091 0 0.173-0.005 0.164 0.129-0.007 0.115 0.008 0.205-0.164 0.204-0.787-0.011-1.571-0.004-2.355-0.004zM14.429 11.225c0.787 0 1.571 0.003 2.356-0.003 0.137 0 0.157 0.055 0.16 0.173 0 0.124-0.040 0.16-0.16 0.16-0.7-0.002-1.529-0.003-2.357-0.003s-1.658 0.001-2.487 0.003l0.13-0c-0.123 0-0.161-0.039-0.16-0.161 0-0.12 0.027-0.173 0.161-0.173q1.181 0.007 2.357 0.004zM14.417 13.621c-0.78 0-1.564-0.003-2.345 0.003-0.124 0-0.16-0.040-0.16-0.163 0-0.124 0.031-0.171 0.164-0.168q2.352 0.008 4.704 0c0.131 0 0.164 0.040 0.164 0.167 0.003 0.133-0.040 0.165-0.169 0.164q-1.179-0.004-2.357-0.003zM11.419 11.552h-0.045c-0.213 0-0.269-0.045-0.196-0.249 0.060-0.172 0.247-0.047 0.373-0.073 0.036-0.005 0.116 0.044 0.123 0.080 0.040 0.229 0.023 0.241-0.253 0.241zM11.423 9.153h0.045c0.221 0 0.275 0.041 0.197 0.253-0.063 0.173-0.249 0.045-0.379 0.069-0.031 0.008-0.107-0.051-0.112-0.085-0.032-0.236-0.027-0.236 0.247-0.236zM11.425 13.621h-0.068q-0.275 0.001-0.184-0.267c0.008-0.027 0.051-0.053 0.080-0.056 0.080-0.008 0.157-0.003 0.235-0.003 0.177 0 0.253 0.115 0.18 0.277-0.008 0.024-0.055 0.040-0.088 0.045-0.051 0.008-0.104 0.003-0.156 0.003zM14.056 18.472q1.367 0.001 2.729-0.003c0.123 0 0.16 0.036 0.16 0.16 0 0.12-0.023 0.173-0.159 0.171-0.81-0.002-1.769-0.003-2.729-0.003s-1.918 0.001-2.877 0.003l0.149-0c-0.128 0-0.168-0.036-0.168-0.165s0.040-0.167 0.167-0.167q1.367 0.005 2.728 0.004zM14.419 20.683c-0.78 0-1.561-0.005-2.344 0.004-0.179 0-0.151-0.101-0.159-0.208-0.009-0.129 0.068-0.125 0.16-0.125h4.711c0.1 0 0.168 0.007 0.16 0.137-0.009 0.108 0.008 0.2-0.16 0.197-0.789-0.008-1.579-0.003-2.368-0.003zM14.419 22.751q-1.173-0.003-2.344 0.003c-0.133 0-0.16-0.049-0.161-0.172 0-0.121 0.039-0.16 0.16-0.16q2.357 0.005 4.713 0c0.12 0 0.161 0.036 0.16 0.16 0 0.119-0.021 0.173-0.16 0.171q-1.183-0.005-2.367-0.003zM14.431 24.496q1.177 0.003 2.356-0.003c0.128 0 0.16 0.044 0.16 0.163-0.003 0.115-0.020 0.169-0.155 0.168-0.702-0.002-1.533-0.003-2.363-0.003s-1.662 0.001-2.493 0.003l0.13-0c-0.123 0-0.155-0.044-0.151-0.157 0.001-0.107 0.007-0.175 0.147-0.173q1.185 0.005 2.371 0.003zM11.423 20.352h0.033c0.236 0 0.267 0.017 0.209 0.247-0.044 0.173-0.215 0.056-0.328 0.080-0.057 0.011-0.156 0.044-0.169-0.080-0.027-0.239-0.021-0.245 0.256-0.245zM11.419 22.424h0.061c0.187 0 0.253 0.093 0.188 0.272-0.008 0.025-0.052 0.048-0.083 0.051-0.083 0.007-0.165-0.004-0.249 0.004-0.133 0.016-0.176-0.035-0.177-0.173-0.004-0.249 0.177-0.116 0.26-0.153zM11.421 24.821h-0.068c-0.18 0-0.245-0.089-0.181-0.269 0.008-0.024 0.051-0.051 0.083-0.053 0.072-0.008 0.147-0.003 0.22-0.003 0.193 0 0.256 0.083 0.195 0.267-0.008 0.027-0.051 0.051-0.080 0.056-0.056 0.007-0.113 0.001-0.167 0.001z"></path>
</symbol>
<symbol id="icon-typescript" viewBox="0 0 32 32">
<path d="M1.5 0c-0.831 0-1.5 0.669-1.5 1.5v29c0 0.831 0.669 1.5 1.5 1.5h29c0.831 0 1.5-0.669 1.5-1.5v-29c0-0.831-0.669-1.5-1.5-1.5zM24.651 13c0.816 0 1.539 0.049 2.169 0.148 0.655 0.1 1.241 0.258 1.799 0.473l-0.058-0.020v3.277c-0.247-0.173-0.528-0.334-0.824-0.468l-0.033-0.013c-0.263-0.123-0.58-0.241-0.908-0.335l-0.048-0.012c-0.569-0.165-1.223-0.262-1.899-0.267h-0.003c-0.4 0-0.764 0.037-1.092 0.115-0.314 0.068-0.591 0.18-0.844 0.33l0.013-0.007c-0.227 0.139-0.4 0.305-0.524 0.499-0.117 0.18-0.187 0.401-0.187 0.638 0 0.005 0 0.011 0 0.016v-0.001c0 0.261 0.071 0.497 0.208 0.705 0.139 0.208 0.336 0.405 0.591 0.592s0.564 0.368 0.928 0.547c0.364 0.18 0.776 0.365 1.235 0.555 0.627 0.263 1.189 0.543 1.688 0.837 0.499 0.296 0.927 0.631 1.284 1.004 0.357 0.372 0.629 0.797 0.819 1.276s0.285 1.035 0.285 1.671c0 0.876-0.167 1.613-0.497 2.208-0.331 0.593-0.786 1.080-1.334 1.437l-0.015 0.009c-0.568 0.366-1.233 0.642-1.945 0.788l-0.038 0.006c-0.755 0.16-1.551 0.24-2.387 0.24-0.017 0-0.038 0-0.058 0-0.847 0-1.675-0.080-2.478-0.232l0.082 0.013c-0.756-0.133-1.433-0.362-2.058-0.677l0.042 0.019v-3.507c1.155 0.988 2.664 1.592 4.314 1.6h0.002c0.444 0 0.832-0.040 1.163-0.12 0.332-0.080 0.608-0.192 0.831-0.333 0.221-0.144 0.387-0.312 0.497-0.507 0.103-0.187 0.164-0.41 0.164-0.648 0-0.302-0.098-0.582-0.265-0.808l0.003 0.004c-0.2-0.262-0.436-0.483-0.705-0.66l-0.011-0.007c-0.307-0.207-0.66-0.404-1.029-0.573l-0.047-0.019c-0.21-0.109-0.652-0.304-1.099-0.491l-0.244-0.091c-1.224-0.511-2.136-1.136-2.737-1.873-0.6-0.737-0.901-1.629-0.901-2.673 0-0.819 0.164-1.521 0.492-2.109s0.773-1.072 1.339-1.452c0.561-0.375 1.216-0.665 1.919-0.831l0.041-0.008c0.693-0.17 1.488-0.268 2.306-0.268 0.019 0 0.038 0 0.057 0h-0.003zM4.5 13.251h12.751v2.888h-4.576v12.861h-3.623v-12.861h-4.552z"></path>
</symbol>
<symbol id="icon-vite" viewBox="0 0 32 32">
<path d="M11.048 14.104l0.683-11.543c0.012-0.187 0.148-0.34 0.327-0.376l0.003-0 11.109-2.177c0.024-0.005 0.051-0.008 0.079-0.008 0.225 0 0.408 0.183 0.408 0.408 0 0.040-0.006 0.079-0.017 0.116l0.001-0.003-2.077 7.204c-0.010 0.034-0.016 0.073-0.016 0.113 0 0.225 0.183 0.408 0.408 0.408 0.027 0 0.054-0.003 0.080-0.008l-0.003 0 3.184-0.613c0.024-0.005 0.051-0.008 0.078-0.008 0.225 0 0.408 0.183 0.408 0.408 0 0.067-0.016 0.13-0.045 0.186l0.001-0.002-9.053 18.067-0.164 0.253c-0.070 0.113-0.193 0.187-0.334 0.187-0.001 0-0.001 0-0.002 0h0c-0.236 0-0.467-0.203-0.407-0.492l1.46-7.068c0.005-0.025 0.008-0.053 0.008-0.083 0-0.225-0.183-0.408-0.408-0.408-0.042 0-0.083 0.006-0.121 0.018l0.003-0.001-1.911 0.58c-0.036 0.011-0.076 0.018-0.119 0.018-0.225 0-0.408-0.183-0.408-0.408 0-0.029 0.003-0.057 0.009-0.084l-0 0.003 0.92-4.5c0.005-0.025 0.009-0.054 0.009-0.083 0-0.225-0.183-0.408-0.408-0.408-0.033 0-0.066 0.004-0.097 0.011l0.003-0.001-3.093 0.715c-0.027 0.007-0.059 0.010-0.091 0.010-0.225 0-0.408-0.183-0.408-0.408 0-0.008 0-0.017 0.001-0.025l-0 0.001zM31.016 3.536l-7.971 1.451-0.725 2.516 2.769-0.533c0.063-0.013 0.135-0.021 0.209-0.021 0.384 0 0.721 0.203 0.909 0.508l0.003 0.005c0.101 0.16 0.16 0.354 0.16 0.562 0 0.176-0.042 0.341-0.118 0.488l0.003-0.006-9.072 18.101-0.020 0.031-0.163 0.253c-0.192 0.297-0.521 0.492-0.896 0.493h-0c-0.34-0.002-0.643-0.158-0.844-0.401l-0.002-0.002c-0.148-0.181-0.237-0.415-0.237-0.67 0-0.079 0.009-0.156 0.025-0.23l-0.001 0.007 1.372-6.641-1.493 0.453c-0.093 0.029-0.2 0.046-0.312 0.046-0.336 0-0.636-0.153-0.834-0.393l-0.001-0.002c-0.151-0.183-0.242-0.42-0.242-0.677 0-0.076 0.008-0.151 0.023-0.223l-0.001 0.007 0.84-4.107-2.703 0.624c-0.072 0.017-0.155 0.027-0.241 0.027-0.308 0-0.587-0.13-0.783-0.337l-0-0.001c-0.18-0.193-0.291-0.452-0.291-0.738 0-0.022 0.001-0.044 0.002-0.065l-0 0.003 0.519-8.76-9.92-1.773c-0.044-0.008-0.094-0.013-0.145-0.013-0.451 0-0.816 0.365-0.816 0.816 0 0.149 0.040 0.289 0.11 0.409l-0.002-0.004 15.313 26.849c0.143 0.248 0.407 0.412 0.709 0.412 0.304 0 0.57-0.167 0.71-0.414l0.002-0.004 15.013-26.847c0.065-0.114 0.103-0.251 0.103-0.397 0-0.451-0.365-0.816-0.816-0.816-0.052 0-0.102 0.005-0.151 0.014l0.005-0.001z"></path>
</symbol>
</defs>
</svg>
